<svg width="132" height="27" viewBox="0 0 132 27" fill="none" xmlns="http://www.w3.org/2000/svg">
<path d="M5.92 26.56C5.09333 26.56 4.30667 26.32 3.56 25.84C2.81333 25.3867 2.25333 24.68 1.88 23.72C1.74667 23.3733 1.65333 23 1.6 22.6C1.54667 22.2 1.52 21.8267 1.52 21.48V21.12C1.52 20.9067 1.53333 20.6933 1.56 20.48C1.61333 20.2667 1.73333 20.16 1.92 20.16C1.97333 20.16 2 20.1867 2 20.24C2 20.4 1.98667 20.5733 1.96 20.76C1.96 20.92 1.96 21.08 1.96 21.24C1.96 22.4933 2.26667 23.44 2.88 24.08C3.52 24.72 4.30667 25.04 5.24 25.04C6.17333 25.04 7.08 24.7733 7.96 24.24C8.84 23.7067 9.65333 23.0267 10.4 22.2C11.1467 21.3733 11.8533 20.3467 12.52 19.12C13.1867 17.8933 13.8133 16.6 14.4 15.24C14.9867 13.8533 15.5333 12.4933 16.04 11.16C16.5733 9.82667 17.0667 8.64 17.52 7.6C17.7867 6.98667 18.28 6.46667 19 6.04C19.7467 5.61333 20.4533 5.30667 21.12 5.12C20.9333 5.09333 20.7467 5.08 20.56 5.08C20.4 5.05333 20.24 5.02667 20.08 5L14.44 4.44C14.0133 4.38667 13.4533 4.34667 12.76 4.32C12.0667 4.29333 11.3333 4.28 10.56 4.28C9.52 4.28 8.45333 4.34667 7.36 4.48C6.26667 4.58667 5.28 4.78667 4.4 5.08C3.52 5.37333 2.88 5.81333 2.48 6.4C2.26667 6.72 2.16 7.09333 2.16 7.52C2.16 7.94667 2.28 8.34667 2.52 8.72C2.76 9.09333 3.06667 9.38667 3.44 9.6C3.49333 9.65333 3.52 9.69333 3.52 9.72C3.52 9.8 3.45333 9.86667 3.32 9.92C3.21333 9.97333 3.09333 9.97333 2.96 9.92C2.72 9.78667 2.44 9.56 2.12 9.24C1.8 8.92 1.50667 8.58667 1.24 8.24C1 7.86667 0.826667 7.56 0.72 7.32C0.56 6.86667 0.48 6.46667 0.48 6.12C0.48 5.48 0.693333 4.96 1.12 4.56C1.57333 4.13333 2.14667 3.81333 2.84 3.6C3.56 3.36 4.32 3.2 5.12 3.12C5.94667 3.01333 6.73333 2.96 7.48 2.96C7.77333 2.96 8.05333 2.96 8.32 2.96C8.58667 2.96 8.84 2.97333 9.08 3C9.93333 3.05333 10.8267 3.10667 11.76 3.16C12.6933 3.21333 13.64 3.28 14.6 3.36L20.96 3.88C21.3867 3.90667 22.0267 3.96 22.88 4.04C23.76 4.09333 24.6533 4.12 25.56 4.12C26.5467 4.12 27.4533 4.06667 28.28 3.96C29.1067 3.82667 29.6533 3.6 29.92 3.28C29.9733 3.17333 30.0533 3.14667 30.16 3.2C30.2667 3.25333 30.2933 3.32 30.24 3.4C30.16 3.72 30.0533 3.96 29.92 4.12C29.7867 4.38667 29.6 4.68 29.36 5C29.1467 5.32 28.8133 5.53333 28.36 5.64C28.2533 5.66667 28.1067 5.69333 27.92 5.72C27.7333 5.72 27.5333 5.72 27.32 5.72C26.7067 5.72 25.96 5.68 25.08 5.6C24.2267 5.49333 23.3867 5.38667 22.56 5.28C21.76 5.41333 21.0667 5.78667 20.48 6.4C19.8933 7.01333 19.3867 7.72 18.96 8.52C18.5333 9.29333 18.16 10.0267 17.84 10.72C17.2533 11.92 16.76 13.0267 16.36 14.04C15.9867 15.0267 15.52 16.12 14.96 17.32C14.4 18.5467 13.8133 19.76 13.2 20.96C12.5867 22.1333 11.84 23.2 10.96 24.16C10.2933 24.88 9.52 25.4533 8.64 25.88C7.76 26.3333 6.85333 26.56 5.92 26.56ZM18.8656 25.56C18.759 25.56 18.759 25.4533 18.8656 25.24C18.999 25 19.119 24.7333 19.2256 24.44C19.359 24.1467 19.4923 23.8267 19.6256 23.48C19.8923 22.84 20.1856 22.12 20.5056 21.32C20.8256 20.52 21.1323 19.7467 21.4256 19C21.719 18.2267 21.9723 17.5733 22.1856 17.04C22.4256 16.48 22.5856 16.12 22.6656 15.96C22.2923 16.36 21.839 16.8667 21.3056 17.48C20.799 18.0667 20.319 18.64 19.8656 19.2C19.4123 19.76 19.0656 20.2 18.8256 20.52C18.7456 20.6267 18.679 20.68 18.6256 20.68C18.5723 20.68 18.5456 20.6133 18.5456 20.48C18.5456 20.2667 18.6123 20.0667 18.7456 19.88C19.2523 19.24 19.8123 18.52 20.4256 17.72C21.0656 16.92 21.639 16.1867 22.1456 15.52C22.6523 14.8267 22.9723 14.3733 23.1056 14.16C23.399 14.1067 23.8256 14.0267 24.3856 13.92C24.9723 13.8133 25.3723 13.6667 25.5856 13.48C25.6656 13.4 25.7456 13.36 25.8256 13.36C25.879 13.36 25.9056 13.4133 25.9056 13.52C25.9323 13.6 25.9056 13.6933 25.8256 13.8C25.6656 13.96 25.4256 14.3067 25.1056 14.84C24.8123 15.3733 24.479 15.9867 24.1056 16.68C23.7323 17.3733 23.3723 18.04 23.0256 18.68C23.2923 18.28 23.639 17.8133 24.0656 17.28C24.519 16.72 25.0123 16.1867 25.5456 15.68C26.079 15.1467 26.6123 14.7067 27.1456 14.36C27.7056 14.0133 28.2256 13.84 28.7056 13.84C29.0523 13.84 29.3456 13.92 29.5856 14.08C29.8256 14.2133 30.0123 14.4667 30.1456 14.84C30.2256 15.0267 30.2656 15.24 30.2656 15.48C30.2656 15.9333 30.1456 16.3733 29.9056 16.8C29.6923 17.2 29.5323 17.5067 29.4256 17.72C29.399 17.8 29.3056 17.88 29.1456 17.96C28.9856 18.0133 28.919 17.9867 28.9456 17.88C28.9723 17.7467 28.9856 17.6133 28.9856 17.48C29.0123 17.3467 29.0256 17.2 29.0256 17.04C29.0256 16.5867 28.9323 16.1733 28.7456 15.8C28.5856 15.4267 28.279 15.24 27.8256 15.24C27.399 15.24 26.879 15.5067 26.2656 16.04C25.6523 16.5733 25.039 17.1867 24.4256 17.88C23.6523 18.7867 23.039 19.6533 22.5856 20.48C22.1323 21.28 21.759 22.0667 21.4656 22.84C21.3056 23.2667 21.1456 23.6933 20.9856 24.12C20.8256 24.52 20.7056 24.84 20.6256 25.08C20.279 25.1067 19.9323 25.1867 19.5856 25.32C19.239 25.48 18.999 25.56 18.8656 25.56ZM34.9641 25.12C34.6974 25.12 34.4707 25.0667 34.2841 24.96C34.0974 24.8533 34.0041 24.6533 34.0041 24.36C34.0041 23.9867 34.0974 23.56 34.2841 23.08C34.4707 22.6 34.6841 22.1333 34.9241 21.68C35.1641 21.2 35.3774 20.8133 35.5641 20.52C34.6307 21.5067 33.6574 22.44 32.6441 23.32C32.1374 23.7467 31.5774 24.1467 30.9641 24.52C30.3507 24.8933 29.6974 25.08 29.0041 25.08C28.7374 25.08 28.5507 25 28.4441 24.84C28.3374 24.6533 28.2841 24.44 28.2841 24.2C28.2841 24.0667 28.2974 23.9733 28.3241 23.92C28.4574 22.88 28.7907 21.8 29.3241 20.68C29.8574 19.56 30.5107 18.5067 31.2841 17.52C32.0574 16.5333 32.8441 15.7333 33.6441 15.12C34.5507 14.4267 35.5507 14.08 36.6441 14.08H41.2441C41.3774 14.08 41.4441 14.1333 41.4441 14.24C41.4441 14.4533 41.3241 14.56 41.0841 14.56C40.8174 14.56 40.5507 14.7333 40.2841 15.08C40.0174 15.4 39.8174 15.6667 39.6841 15.88C39.4974 16.1733 39.2041 16.6667 38.8041 17.36C38.4041 18.0533 37.9907 18.8133 37.5641 19.64C37.1641 20.44 36.8174 21.1867 36.5241 21.88C36.2307 22.5733 36.0841 23.08 36.0841 23.4C36.0841 23.7733 36.2707 23.96 36.6441 23.96C37.0441 23.96 37.4974 23.7733 38.0041 23.4C38.5107 23.0267 39.0174 22.5733 39.5241 22.04C40.0574 21.48 40.5374 20.9333 40.9641 20.4C41.4174 19.84 41.7774 19.4 42.0441 19.08C42.2041 19.24 42.1907 19.4667 42.0041 19.76C41.8441 20.0267 41.6974 20.24 41.5641 20.4C41.0307 21.0933 40.4174 21.8133 39.7241 22.56C39.0307 23.28 38.2707 23.8933 37.4441 24.4C36.6441 24.88 35.8174 25.12 34.9641 25.12ZM30.6441 23.72C30.9641 23.72 31.4041 23.4933 31.9641 23.04C32.5507 22.56 33.1774 21.9733 33.8441 21.28C34.5107 20.56 35.1374 19.8133 35.7241 19.04C36.3107 18.24 36.7907 17.52 37.1641 16.88C37.5641 16.2133 37.7641 15.7067 37.7641 15.36C37.7641 15.0667 37.6707 14.8667 37.4841 14.76C37.3241 14.6533 37.1107 14.6 36.8441 14.6C36.4174 14.6 35.9507 14.76 35.4441 15.08C34.9641 15.3733 34.5774 15.6667 34.2841 15.96C33.9641 16.2533 33.5774 16.72 33.1241 17.36C32.6974 17.9733 32.2707 18.6533 31.8441 19.4C31.4174 20.1467 31.0574 20.8667 30.7641 21.56C30.4707 22.2533 30.3241 22.8133 30.3241 23.24C30.3241 23.56 30.4307 23.72 30.6441 23.72ZM42.9619 25.32C41.9752 25.32 41.2819 25.1333 40.8819 24.76C40.4819 24.3867 40.2819 23.9067 40.2819 23.32C40.2819 22.5467 40.5352 21.6933 41.0419 20.76C41.5485 19.8 42.0285 19 42.4819 18.36C42.9352 17.7467 43.4419 17.1733 44.0019 16.64C44.5885 16.08 45.2152 15.6 45.8819 15.2C46.3085 14.9333 46.8819 14.6533 47.6019 14.36C48.3485 14.04 48.9752 13.88 49.4819 13.88C50.0952 13.88 50.5219 14.0267 50.7619 14.32C51.0019 14.5867 51.1219 14.92 51.1219 15.32C51.1219 15.64 51.0685 15.9733 50.9619 16.32C50.8552 16.64 50.7352 16.9467 50.6019 17.24C50.5219 17.4 50.4019 17.52 50.2419 17.6C50.0819 17.6533 50.0019 17.6267 50.0019 17.52C50.0019 17.3867 50.0152 17.2667 50.0419 17.16C50.0685 17.0533 50.0819 16.9333 50.0819 16.8C50.0819 16.2933 49.9619 15.8 49.7219 15.32C49.5085 14.8133 49.1752 14.56 48.7219 14.56C48.2419 14.56 47.7219 14.7333 47.1619 15.08C46.6019 15.4 46.2152 15.68 46.0019 15.92C45.3085 16.64 44.6285 17.5333 43.9619 18.6C43.3219 19.6667 42.8552 20.68 42.5619 21.64C42.3752 22.2 42.2819 22.68 42.2819 23.08C42.2819 23.5333 42.4019 23.8533 42.6419 24.04C42.8819 24.2267 43.1752 24.32 43.5219 24.32C43.7885 24.32 44.0685 24.28 44.3619 24.2C44.6819 24.12 45.0152 24.0267 45.3619 23.92C46.1619 23.6533 46.9619 23.24 47.7619 22.68C48.5885 22.0933 49.3352 21.48 50.0019 20.84C50.6685 20.1733 51.1752 19.6 51.5219 19.12C51.5752 19.1733 51.6019 19.2533 51.6019 19.36C51.6019 19.4933 51.5485 19.6533 51.4419 19.84C51.3352 20 51.2552 20.1333 51.2019 20.24C50.6419 20.9867 49.9085 21.76 49.0019 22.56C48.0952 23.3333 47.1085 23.9867 46.0419 24.52C45.0019 25.0533 43.9752 25.32 42.9619 25.32ZM56.7331 25.24C56.3331 25.24 55.9731 25.16 55.6531 25C55.3598 24.84 55.2131 24.5467 55.2131 24.12C55.2131 23.88 55.2665 23.6133 55.3731 23.32C55.6131 22.7067 55.9331 21.96 56.3331 21.08C56.7598 20.2 57.1865 19.3467 57.6131 18.52C58.0398 17.6667 58.3731 16.9733 58.6131 16.44C58.7731 16.12 58.8531 15.8933 58.8531 15.76C58.8531 15.52 58.7198 15.4667 58.4531 15.6C58.1865 15.7333 57.8931 15.92 57.5731 16.16C57.2531 16.4 57.0131 16.5867 56.8531 16.72C56.1598 17.36 55.4265 18.12 54.6531 19C53.9065 19.8533 53.2131 20.76 52.5731 21.72C51.9598 22.6533 51.4798 23.5867 51.1331 24.52C51.1065 24.68 50.9331 24.8133 50.6131 24.92C50.2931 25.0267 49.9998 25.08 49.7331 25.08C49.3065 25.08 49.1465 24.9467 49.2531 24.68C49.8665 23.2933 50.4931 21.76 51.1331 20.08C51.7998 18.4 52.5465 16.68 53.3731 14.92C53.9865 13.5867 54.6665 12.2133 55.4131 10.8C56.1865 9.38667 57.0398 8.04 57.9731 6.76C58.9065 5.45333 59.9331 4.30667 61.0531 3.32C62.0398 2.46667 63.1198 1.77333 64.2931 1.24C65.4931 0.679999 66.7865 0.4 68.1731 0.4C68.7865 0.4 69.3198 0.533333 69.7731 0.799999C70.2265 1.04 70.4798 1.48 70.5331 2.12V2.48C70.5331 2.85333 70.4931 3.22667 70.4131 3.6C70.3865 3.70667 70.2798 3.76 70.0931 3.76C70.0131 3.76 69.9865 3.74667 70.0131 3.72C70.1198 3.02667 69.9331 2.53333 69.4531 2.24C68.9998 1.94667 68.4131 1.8 67.6931 1.8C66.3865 1.8 65.1865 2.04 64.0931 2.52C62.9998 3 61.9865 3.64 61.0531 4.44C59.6131 5.69333 58.3598 7.29333 57.2931 9.24C56.2265 11.1867 55.3065 13.1733 54.5331 15.2C54.1598 16.1867 53.7865 17.1733 53.4131 18.16C53.0665 19.1467 52.7331 20.0667 52.4131 20.92C53.6131 19.32 54.7598 17.9467 55.8531 16.8C56.9731 15.6533 57.9465 14.84 58.7731 14.36C59.4398 13.9867 60.0398 13.8 60.5731 13.8C61.0798 13.8 61.3331 14.0133 61.3331 14.44C61.3331 14.8133 61.1465 15.2933 60.7731 15.88C60.5865 16.1733 60.2931 16.6667 59.8931 17.36C59.5198 18.0533 59.1198 18.8133 58.6931 19.64C58.2931 20.44 57.9465 21.1867 57.6531 21.88C57.3598 22.5733 57.2131 23.08 57.2131 23.4C57.2131 23.8267 57.3998 24.04 57.7731 24.04C57.9865 24.04 58.2265 23.9733 58.4931 23.84C58.7865 23.7067 58.9998 23.5867 59.1331 23.48C59.8531 22.9467 60.5598 22.2933 61.2531 21.52C61.9465 20.7467 62.5331 20.0667 63.0131 19.48C63.0398 19.4533 63.0531 19.4933 63.0531 19.6C63.0531 19.7067 63.0265 19.8667 62.9731 20.08C62.9465 20.2667 62.8665 20.4267 62.7331 20.56C62.4398 20.96 62.1331 21.3467 61.8131 21.72C61.5198 22.0667 61.2265 22.4133 60.9331 22.76C60.4265 23.3467 59.8131 23.9067 59.0931 24.44C58.3998 24.9733 57.6131 25.24 56.7331 25.24ZM72.6488 26.56C71.8221 26.56 71.0354 26.32 70.2888 25.84C69.5421 25.3867 68.9821 24.68 68.6088 23.72C68.4754 23.3733 68.3821 23 68.3288 22.6C68.3021 22.2 68.2888 21.8133 68.2888 21.44C68.2888 21.0667 68.3554 20.88 68.4888 20.88C68.6221 20.88 68.6888 21 68.6888 21.24C68.6888 22.4667 68.9954 23.4133 69.6088 24.08C70.2488 24.72 71.0488 25.04 72.0088 25.04C73.1821 25.04 74.2754 24.72 75.2888 24.08C76.3288 23.44 77.2754 22.6533 78.1288 21.72C78.9821 20.76 79.7421 19.8 80.4088 18.84C80.0888 19.0267 79.8221 19.12 79.6088 19.12C79.3154 19.12 79.1821 19.0133 79.2088 18.8C79.2088 18.7467 79.2221 18.68 79.2488 18.6C79.3021 18.4933 79.3421 18.4133 79.3688 18.36C79.4488 18.1467 79.5154 17.92 79.5688 17.68C79.6488 17.44 79.7288 17.2133 79.8088 17C80.0221 16.1467 80.2354 15.08 80.4488 13.8C80.6621 12.52 80.7688 11.2267 80.7688 9.92C80.7688 8.8 80.6621 7.73333 80.4488 6.72C80.2354 5.70667 79.8488 4.88 79.2888 4.24H78.3288C77.9288 4.24 77.3688 4.26666 76.6488 4.32C75.9554 4.37333 75.2488 4.49333 74.5288 4.68C73.8088 4.86667 73.2088 5.17333 72.7288 5.6C72.2488 6.02667 72.0354 6.6 72.0888 7.32C72.1154 7.53333 72.1954 7.82667 72.3288 8.2C72.4621 8.54667 72.5421 8.76 72.5688 8.84L72.1688 9.16C72.0088 8.86667 71.8088 8.53333 71.5688 8.16C71.3288 7.76 71.1021 7.37333 70.8888 7C70.7021 6.62667 70.5954 6.34667 70.5688 6.16C70.5421 5.89333 70.5554 5.54667 70.6087 5.12C70.6888 4.69333 70.9021 4.32 71.2488 4C71.6488 3.65333 72.1954 3.42666 72.8888 3.32C73.6088 3.21333 74.3421 3.16 75.0888 3.16C75.8088 3.16 76.5021 3.18667 77.1688 3.24C77.8354 3.29333 78.3821 3.32 78.8088 3.32C78.8088 3.32 79.4221 3.32 80.6488 3.32C81.9021 3.29333 83.4221 3.28 85.2088 3.28L84.3688 4.32C83.6221 4.32 83.0088 4.32 82.5288 4.32C82.0754 4.29333 81.6621 4.28 81.2888 4.28C80.9421 4.25333 80.5154 4.24 80.0088 4.24C80.9421 4.88 81.5821 5.78667 81.9288 6.96C82.3021 8.13333 82.4888 9.38667 82.4888 10.72C82.4888 11.8667 82.3954 13 82.2088 14.12C82.0221 15.2133 81.8221 16.1467 81.6088 16.92C82.8621 15.1867 84.0621 13.4 85.2088 11.56C86.3554 9.72 87.6354 7.98667 89.0488 6.36C89.5021 5.85333 90.0354 5.28 90.6488 4.64C91.2888 3.97333 91.9821 3.38667 92.7288 2.88C93.5021 2.37333 94.2754 2.12 95.0488 2.12C95.4221 2.12 95.7421 2.2 96.0088 2.36C96.2754 2.52 96.5021 2.8 96.6888 3.2C96.8221 3.52 96.8888 3.81333 96.8888 4.08C96.8888 4.50667 96.8088 4.89333 96.6488 5.24C96.4888 5.58667 96.3688 5.85333 96.2888 6.04C96.2621 6.14667 96.1954 6.2 96.0888 6.2C95.9821 6.2 95.9421 6.14667 95.9688 6.04C96.0221 5.90667 96.0488 5.77333 96.0488 5.64C96.0488 5.50667 96.0488 5.38667 96.0488 5.28C96.0488 4.8 95.9288 4.36 95.6888 3.96C95.4488 3.56 95.0621 3.36 94.5288 3.36C93.7821 3.36 92.9554 3.73333 92.0488 4.48C91.1421 5.22667 90.3021 6.04 89.5288 6.92C88.1421 8.52 86.9421 10.04 85.9288 11.48C84.9421 12.92 84.0088 14.3867 83.1288 15.88C82.2488 17.3467 81.3021 18.96 80.2888 20.72C79.7288 21.7067 79.0754 22.6533 78.3288 23.56C77.6088 24.44 76.7821 25.16 75.8488 25.72C74.9421 26.28 73.8754 26.56 72.6488 26.56ZM89.6547 25.12C89.388 25.12 89.1614 25.0667 88.9747 24.96C88.788 24.8533 88.6947 24.6533 88.6947 24.36C88.6947 23.9867 88.788 23.5467 88.9747 23.04C89.188 22.5333 89.4147 22.0267 89.6547 21.52C89.8947 21.0133 90.0947 20.6 90.2547 20.28C90.5747 19.6667 90.8814 19.0533 91.1747 18.44C91.468 17.8267 91.7214 17.3067 91.9347 16.88C92.148 16.48 92.2547 16.2133 92.2547 16.08C92.2547 15.8667 92.0947 15.8667 91.7747 16.08C91.4814 16.2933 91.2014 16.5067 90.9347 16.72C90.348 17.28 89.7347 17.9467 89.0947 18.72C88.4547 19.4667 87.9614 20.0667 87.6147 20.52C87.5347 20.6267 87.468 20.68 87.4147 20.68C87.3614 20.68 87.3347 20.6133 87.3347 20.48C87.3347 20.2667 87.4014 20.0667 87.5347 19.88C87.908 19.3467 88.348 18.76 88.8547 18.12C89.3614 17.48 89.8814 16.8667 90.4147 16.28C90.9214 15.7467 91.4414 15.2267 91.9747 14.72C92.508 14.2133 93.188 13.96 94.0147 13.96C94.5747 13.96 94.8547 14.1733 94.8547 14.6C94.8547 14.9733 94.6947 15.4 94.3747 15.88C94.188 16.1733 93.8947 16.6667 93.4947 17.36C93.0947 18.0533 92.6814 18.8133 92.2547 19.64C91.8547 20.44 91.508 21.1867 91.2147 21.88C90.9214 22.5733 90.7747 23.08 90.7747 23.4C90.7747 23.7733 90.9614 23.96 91.3347 23.96C91.628 23.96 91.988 23.8133 92.4147 23.52C92.8414 23.2 93.2814 22.8267 93.7347 22.4C94.5614 21.6 95.308 20.7333 95.9747 19.8C96.668 18.84 97.2547 17.92 97.7347 17.04C98.2414 16.16 98.6414 15.44 98.9347 14.88C98.988 14.7733 99.0414 14.6533 99.0947 14.52C99.1747 14.36 99.2947 14.2667 99.4547 14.24C99.6147 14.2133 99.9614 14.2 100.495 14.2C101.028 14.2 101.521 14.0933 101.975 13.88H102.055C102.135 13.88 102.175 13.92 102.175 14C102.175 14.2133 102.001 14.3733 101.655 14.48C101.335 14.5867 100.961 14.9067 100.535 15.44C100.135 15.9733 99.7347 16.6267 99.3347 17.4C98.9347 18.1467 98.5747 18.92 98.2547 19.72C97.9347 20.52 97.6947 21.2533 97.5347 21.92C97.3747 22.5867 97.3347 23.08 97.4147 23.4C97.5214 23.7733 97.708 23.96 97.9747 23.96C98.3214 23.96 98.8014 23.7467 99.4147 23.32C100.055 22.8933 100.708 22.3867 101.375 21.8C102.041 21.1867 102.588 20.6267 103.015 20.12C103.201 19.9067 103.375 19.6933 103.535 19.48C103.695 19.2667 103.801 19.1333 103.855 19.08C103.881 19.1067 103.908 19.16 103.935 19.24C103.961 19.2933 103.975 19.3467 103.975 19.4C103.948 19.5867 103.881 19.7733 103.775 19.96C103.668 20.12 103.548 20.2667 103.415 20.4C102.908 21.0667 102.295 21.7733 101.575 22.52C100.881 23.24 100.121 23.8533 99.2947 24.36C98.4947 24.8667 97.668 25.12 96.8147 25.12C96.548 25.12 96.2414 25.0533 95.8947 24.92C95.5747 24.7867 95.4147 24.4933 95.4147 24.04C95.4147 23.6933 95.508 23.2267 95.6947 22.64C95.8814 22.0267 96.0814 21.4267 96.2947 20.84C96.5347 20.2267 96.7347 19.7733 96.8947 19.48C96.548 19.9867 96.1214 20.56 95.6147 21.2C95.1347 21.8133 94.6414 22.36 94.1347 22.84C93.468 23.48 92.748 24.0267 91.9747 24.48C91.228 24.9067 90.4547 25.12 89.6547 25.12ZM103.358 25.56C103.251 25.56 103.251 25.4533 103.358 25.24C103.491 25 103.611 24.7333 103.718 24.44C103.851 24.1467 103.984 23.8267 104.118 23.48C104.384 22.84 104.678 22.12 104.998 21.32C105.318 20.52 105.624 19.7467 105.918 19C106.211 18.2267 106.464 17.5733 106.678 17.04C106.918 16.48 107.078 16.12 107.158 15.96C106.784 16.36 106.331 16.8667 105.798 17.48C105.291 18.0667 104.811 18.64 104.358 19.2C103.904 19.76 103.558 20.2 103.318 20.52C103.238 20.6267 103.171 20.68 103.118 20.68C103.064 20.68 103.038 20.6133 103.038 20.48C103.038 20.2667 103.104 20.0667 103.238 19.88C103.744 19.24 104.304 18.52 104.918 17.72C105.558 16.92 106.131 16.1867 106.638 15.52C107.144 14.8267 107.464 14.3733 107.598 14.16C107.891 14.1067 108.318 14.0267 108.878 13.92C109.464 13.8133 109.864 13.6667 110.078 13.48C110.158 13.4 110.238 13.36 110.318 13.36C110.371 13.36 110.398 13.4133 110.398 13.52C110.424 13.6 110.398 13.6933 110.318 13.8C110.158 13.96 109.918 14.3067 109.598 14.84C109.304 15.3733 108.971 15.9867 108.598 16.68C108.224 17.3733 107.864 18.04 107.518 18.68C107.784 18.28 108.131 17.8133 108.558 17.28C109.011 16.72 109.504 16.1867 110.038 15.68C110.571 15.1467 111.104 14.7067 111.638 14.36C112.198 14.0133 112.718 13.84 113.198 13.84C113.544 13.84 113.838 13.92 114.078 14.08C114.318 14.2133 114.504 14.4667 114.638 14.84C114.718 15.0267 114.758 15.24 114.758 15.48C114.758 15.9333 114.638 16.3733 114.398 16.8C114.184 17.2 114.024 17.5067 113.918 17.72C113.891 17.8 113.798 17.88 113.638 17.96C113.478 18.0133 113.411 17.9867 113.438 17.88C113.464 17.7467 113.478 17.6133 113.478 17.48C113.504 17.3467 113.518 17.2 113.518 17.04C113.518 16.5867 113.424 16.1733 113.238 15.8C113.078 15.4267 112.771 15.24 112.318 15.24C111.891 15.24 111.371 15.5067 110.758 16.04C110.144 16.5733 109.531 17.1867 108.918 17.88C108.144 18.7867 107.531 19.6533 107.078 20.48C106.624 21.28 106.251 22.0667 105.958 22.84C105.798 23.2667 105.638 23.6933 105.478 24.12C105.318 24.52 105.198 24.84 105.118 25.08C104.771 25.1067 104.424 25.1867 104.078 25.32C103.731 25.48 103.491 25.56 103.358 25.56ZM122.336 9.72C121.963 9.72 121.696 9.6 121.536 9.36C121.43 9.22667 121.376 9.05333 121.376 8.84C121.376 8.41333 121.576 8.06667 121.976 7.8C122.27 7.64 122.536 7.56 122.776 7.56C123.176 7.56 123.456 7.68 123.616 7.92C123.723 8.05333 123.776 8.22667 123.776 8.44C123.776 8.86667 123.563 9.21333 123.136 9.48C122.896 9.64 122.63 9.72 122.336 9.72ZM115.376 25.12C115.11 25.12 114.883 25.0667 114.696 24.96C114.536 24.8533 114.456 24.6533 114.456 24.36C114.456 23.9867 114.55 23.5467 114.736 23.04C114.95 22.5333 115.176 22.0267 115.416 21.52C115.683 21.0133 115.883 20.6 116.016 20.28C116.203 19.9067 116.43 19.4267 116.696 18.84C116.99 18.2267 117.256 17.6533 117.496 17.12C117.763 16.56 117.95 16.1733 118.056 15.96C117.683 16.36 117.23 16.8667 116.696 17.48C116.19 18.0667 115.71 18.64 115.256 19.2C114.803 19.76 114.456 20.2 114.216 20.52C114.136 20.6267 114.07 20.68 114.016 20.68C113.963 20.68 113.936 20.6133 113.936 20.48C113.936 20.2667 114.003 20.0667 114.136 19.88C114.643 19.24 115.203 18.52 115.816 17.72C116.456 16.92 117.03 16.1867 117.536 15.52C118.043 14.8267 118.363 14.3733 118.496 14.16C118.79 14.1067 119.216 14.0267 119.776 13.92C120.363 13.8133 120.763 13.6667 120.976 13.48C121.056 13.4 121.136 13.36 121.216 13.36C121.27 13.36 121.296 13.4133 121.296 13.52C121.323 13.6 121.296 13.6933 121.216 13.8C121.056 13.9867 120.776 14.44 120.376 15.16C119.976 15.88 119.55 16.68 119.096 17.56C118.67 18.4133 118.27 19.1867 117.896 19.88C117.523 20.6 117.203 21.2933 116.936 21.96C116.67 22.6267 116.536 23.1067 116.536 23.4C116.536 23.7733 116.723 23.96 117.096 23.96C117.443 23.96 117.883 23.7467 118.416 23.32C118.976 22.8933 119.536 22.3867 120.096 21.8C120.656 21.1867 121.15 20.6267 121.576 20.12C121.71 19.96 121.87 19.7733 122.056 19.56C122.27 19.32 122.403 19.1733 122.456 19.12C122.51 19.1733 122.536 19.2667 122.536 19.4C122.51 19.5867 122.443 19.7733 122.336 19.96C122.23 20.12 122.123 20.2667 122.016 20.4C121.456 21.0933 120.843 21.8133 120.176 22.56C119.51 23.28 118.776 23.8933 117.976 24.4C117.176 24.88 116.31 25.12 115.376 25.12ZM130.032 9.72C129.658 9.72 129.392 9.6 129.232 9.36C129.125 9.22667 129.072 9.05333 129.072 8.84C129.072 8.41333 129.272 8.06667 129.672 7.8C129.965 7.64 130.232 7.56 130.472 7.56C130.872 7.56 131.152 7.68 131.312 7.92C131.418 8.05333 131.472 8.22667 131.472 8.44C131.472 8.86667 131.258 9.21333 130.832 9.48C130.592 9.64 130.325 9.72 130.032 9.72ZM123.072 25.12C122.805 25.12 122.578 25.0667 122.392 24.96C122.232 24.8533 122.152 24.6533 122.152 24.36C122.152 23.9867 122.245 23.5467 122.432 23.04C122.645 22.5333 122.872 22.0267 123.112 21.52C123.378 21.0133 123.578 20.6 123.712 20.28C123.898 19.9067 124.125 19.4267 124.392 18.84C124.685 18.2267 124.952 17.6533 125.192 17.12C125.458 16.56 125.645 16.1733 125.752 15.96C125.378 16.36 124.925 16.8667 124.392 17.48C123.885 18.0667 123.405 18.64 122.952 19.2C122.498 19.76 122.152 20.2 121.912 20.52C121.832 20.6267 121.765 20.68 121.712 20.68C121.658 20.68 121.632 20.6133 121.632 20.48C121.632 20.2667 121.698 20.0667 121.832 19.88C122.338 19.24 122.898 18.52 123.512 17.72C124.152 16.92 124.725 16.1867 125.232 15.52C125.738 14.8267 126.058 14.3733 126.192 14.16C126.485 14.1067 126.912 14.0267 127.472 13.92C128.058 13.8133 128.458 13.6667 128.672 13.48C128.752 13.4 128.832 13.36 128.912 13.36C128.965 13.36 128.992 13.4133 128.992 13.52C129.018 13.6 128.992 13.6933 128.912 13.8C128.752 13.9867 128.472 14.44 128.072 15.16C127.672 15.88 127.245 16.68 126.792 17.56C126.365 18.4133 125.965 19.1867 125.592 19.88C125.218 20.6 124.898 21.2933 124.632 21.96C124.365 22.6267 124.232 23.1067 124.232 23.4C124.232 23.7733 124.418 23.96 124.792 23.96C125.138 23.96 125.578 23.7467 126.112 23.32C126.672 22.8933 127.232 22.3867 127.792 21.8C128.352 21.1867 128.845 20.6267 129.272 20.12C129.405 19.96 129.565 19.7733 129.752 19.56C129.965 19.32 130.098 19.1733 130.152 19.12C130.205 19.1733 130.232 19.2667 130.232 19.4C130.205 19.5867 130.138 19.7733 130.032 19.96C129.925 20.12 129.818 20.2667 129.712 20.4C129.152 21.0933 128.538 21.8133 127.872 22.56C127.205 23.28 126.472 23.8933 125.672 24.4C124.872 24.88 124.005 25.12 123.072 25.12Z" fill="black"/>
</svg>
